<svg width="270" height="144" viewBox="0 0 270 144" fill="none" xmlns="http://www.w3.org/2000/svg">
<path d="M12.4463 135.147V133.291H8.05569V130.079H13.2856V128.174H5.98955V139.974H8.05569V135.147H12.4463ZM19.7764 132V136.181C19.7764 137.698 19.1791 138.424 17.9362 138.424C16.8386 138.424 16.2413 137.811 16.2413 136.294V132H14.272V136.988C14.272 138.941 15.3535 140.184 17.1937 140.184C18.259 140.184 19.2921 139.667 19.7764 138.909L19.9216 139.974H21.7457V132H19.7764ZM25.7489 139.974V135.68C25.7489 134.389 26.4915 133.549 27.7021 133.549C28.719 133.549 29.3808 134.195 29.3808 135.535V139.974H31.3501V135.067C31.3501 133.001 30.3171 131.758 28.3155 131.758C27.234 131.758 26.2655 132.226 25.7651 133.033L25.6037 132H23.7797V139.974H25.7489ZM36.5618 140.184C37.7724 140.184 38.8055 139.651 39.2897 138.731L39.4189 139.974H41.2267V127.964H39.2736V133.017C38.7732 132.226 37.7885 131.758 36.6748 131.758C34.2696 131.758 32.8169 133.533 32.8169 136.019C32.8169 138.489 34.2535 140.184 36.5618 140.184ZM36.9976 138.376C35.6256 138.376 34.7862 137.375 34.7862 135.955C34.7862 134.534 35.6256 133.517 36.9976 133.517C38.3697 133.517 39.2574 134.518 39.2574 135.955C39.2574 137.391 38.3697 138.376 36.9976 138.376ZM45.6519 140.184C46.8948 140.184 47.9763 139.619 48.3152 138.796L48.4605 139.974H50.1877V135.131C50.1877 132.92 48.8641 131.758 46.7172 131.758C44.5542 131.758 43.1337 132.888 43.1337 134.615H44.8125C44.8125 133.775 45.4582 133.291 46.6204 133.291C47.6211 133.291 48.2668 133.727 48.2668 134.809V134.986L45.8778 135.164C43.9893 135.309 42.9239 136.229 42.9239 137.698C42.9239 139.199 43.957 140.184 45.6519 140.184ZM46.2975 138.699C45.4097 138.699 44.9255 138.344 44.9255 137.617C44.9255 136.972 45.3936 136.568 46.6204 136.455L48.283 136.326V136.746C48.283 137.972 47.5082 138.699 46.2975 138.699ZM51.6542 135.971C51.6542 138.505 53.2361 140.184 55.6573 140.184C57.7396 140.184 59.2892 138.909 59.5314 137.052H57.5459C57.3361 137.924 56.642 138.408 55.6573 138.408C54.3983 138.408 53.6235 137.472 53.6235 135.971C53.6235 134.47 54.4629 133.517 55.7219 133.517C56.6581 133.517 57.3199 133.985 57.5459 134.889H59.5152C59.3054 132.968 57.8203 131.758 55.6412 131.758C53.2845 131.758 51.6542 133.501 51.6542 135.971ZM61.9818 130.402C62.6274 130.402 63.1601 129.869 63.1601 129.207C63.1601 128.546 62.6274 128.029 61.9818 128.029C61.3038 128.029 60.7711 128.546 60.7711 129.207C60.7711 129.869 61.3038 130.402 61.9818 130.402ZM60.9971 139.974H62.9664V132H60.9971V139.974ZM71.1187 128.659H69.2947L68.0841 131.047H69.5369L71.1187 128.659ZM64.5329 135.971C64.5329 138.457 66.3246 140.168 68.7943 140.168C71.264 140.168 73.0558 138.457 73.0558 135.971C73.0558 133.485 71.264 131.774 68.7943 131.774C66.3246 131.774 64.5329 133.485 64.5329 135.971ZM66.5022 135.971C66.5022 134.518 67.4384 133.533 68.7943 133.533C70.1502 133.533 71.0865 134.518 71.0865 135.971C71.0865 137.423 70.1502 138.408 68.7943 138.408C67.4384 138.408 66.5022 137.423 66.5022 135.971ZM76.586 139.974V135.68C76.586 134.389 77.3285 133.549 78.5392 133.549C79.5561 133.549 80.2179 134.195 80.2179 135.535V139.974H82.1872V135.067C82.1872 133.001 81.1541 131.758 79.1525 131.758C78.0711 131.758 77.1025 132.226 76.6022 133.033L76.4407 132H74.6167V139.974H76.586ZM93.8803 132V136.181C93.8803 137.698 93.283 138.424 92.0401 138.424C90.9425 138.424 90.3452 137.811 90.3452 136.294V132H88.3759V136.988C88.3759 138.941 89.4574 140.184 91.2976 140.184C92.3629 140.184 93.396 139.667 93.8803 138.909L94.0255 139.974H95.8496V132H93.8803ZM99.8528 139.974V135.68C99.8528 134.389 100.595 133.549 101.806 133.549C102.823 133.549 103.485 134.195 103.485 135.535V139.974H105.454V135.067C105.454 133.001 104.421 131.758 102.419 131.758C101.338 131.758 100.369 132.226 99.869 133.033L99.7076 132H97.8835V139.974H99.8528ZM111.271 135.971C111.271 138.505 112.853 140.184 115.275 140.184C117.357 140.184 118.907 138.909 119.149 137.052H117.163C116.953 137.924 116.259 138.408 115.275 138.408C114.016 138.408 113.241 137.472 113.241 135.971C113.241 134.47 114.08 133.517 115.339 133.517C116.275 133.517 116.937 133.985 117.163 134.889H119.133C118.923 132.968 117.438 131.758 115.258 131.758C112.902 131.758 111.271 133.501 111.271 135.971ZM124.182 140.184C126.264 140.184 127.717 139.135 128.056 137.391H126.232C126.006 138.15 125.296 138.57 124.214 138.57C122.907 138.57 122.164 137.859 122.019 136.455L128.023 136.439V135.842C128.023 133.356 126.506 131.758 124.117 131.758C121.777 131.758 120.146 133.485 120.146 135.987C120.146 138.457 121.809 140.184 124.182 140.184ZM124.133 133.372C125.312 133.372 126.07 134.098 126.07 135.196H122.067C122.261 134.001 122.971 133.372 124.133 133.372ZM131.569 139.974V135.68C131.569 134.389 132.311 133.549 133.522 133.549C134.539 133.549 135.201 134.195 135.201 135.535V139.974H137.17V135.067C137.17 133.001 136.137 131.758 134.135 131.758C133.054 131.758 132.085 132.226 131.585 133.033L131.424 132H129.6V139.974H131.569ZM141.817 139.974V133.646H143.366V132H141.817V129.514H139.847V132H138.314V133.646H139.847V139.974H141.817ZM149.595 131.968C149.272 131.887 148.997 131.855 148.723 131.855C147.658 131.855 146.899 132.387 146.56 133.178L146.447 132.016H144.591V139.974H146.56V136.1C146.56 134.55 147.448 133.792 148.868 133.792H149.595V131.968ZM150.191 135.971C150.191 138.457 151.983 140.168 154.453 140.168C156.922 140.168 158.714 138.457 158.714 135.971C158.714 133.485 156.922 131.774 154.453 131.774C151.983 131.774 150.191 133.485 150.191 135.971ZM152.161 135.971C152.161 134.518 153.097 133.533 154.453 133.533C155.809 133.533 156.745 134.518 156.745 135.971C156.745 137.423 155.809 138.408 154.453 138.408C153.097 138.408 152.161 137.423 152.161 135.971ZM167.903 140.184C169.113 140.184 170.146 139.651 170.631 138.731L170.76 139.974H172.568V127.964H170.614V133.017C170.114 132.226 169.129 131.758 168.016 131.758C165.611 131.758 164.158 133.533 164.158 136.019C164.158 138.489 165.594 140.184 167.903 140.184ZM168.338 138.376C166.966 138.376 166.127 137.375 166.127 135.955C166.127 134.534 166.966 133.517 168.338 133.517C169.711 133.517 170.598 134.518 170.598 135.955C170.598 137.391 169.711 138.376 168.338 138.376ZM178.187 140.184C180.27 140.184 181.722 139.135 182.061 137.391H180.237C180.011 138.15 179.301 138.57 178.22 138.57C176.912 138.57 176.17 137.859 176.024 136.455L182.029 136.439V135.842C182.029 133.356 180.512 131.758 178.123 131.758C175.782 131.758 174.152 133.485 174.152 135.987C174.152 138.457 175.814 140.184 178.187 140.184ZM178.139 133.372C179.317 133.372 180.076 134.098 180.076 135.196H176.073C176.266 134.001 176.977 133.372 178.139 133.372ZM191.523 140.184C193.605 140.184 195.058 139.135 195.397 137.391H193.573C193.347 138.15 192.637 138.57 191.555 138.57C190.248 138.57 189.505 137.859 189.36 136.455L195.365 136.439V135.842C195.365 133.356 193.848 131.758 191.459 131.758C189.118 131.758 187.488 133.485 187.488 135.987C187.488 138.457 189.15 140.184 191.523 140.184ZM191.475 133.372C192.653 133.372 193.412 134.098 193.412 135.196H189.409C189.602 134.001 190.312 133.372 191.475 133.372ZM196.328 137.553C196.328 139.118 197.587 140.184 199.572 140.184C201.541 140.184 202.913 139.183 202.913 137.569C202.913 136.342 202.235 135.729 200.896 135.422L199.459 135.083C198.781 134.922 198.426 134.631 198.426 134.179C198.426 133.582 198.878 133.227 199.653 133.227C200.411 133.227 200.863 133.662 200.88 134.34H202.752C202.736 132.791 201.525 131.758 199.733 131.758C197.893 131.758 196.57 132.694 196.57 134.26C196.57 135.535 197.264 136.213 198.7 136.536L200.137 136.875C200.847 137.036 201.057 137.327 201.057 137.73C201.057 138.311 200.557 138.683 199.637 138.683C198.733 138.683 198.216 138.247 198.2 137.553H196.328ZM204.413 143.67H206.382V138.909C206.882 139.716 207.916 140.184 209.11 140.184C211.483 140.184 212.839 138.376 212.839 135.89C212.839 133.388 211.354 131.758 209.11 131.758C207.899 131.758 206.85 132.29 206.366 133.21L206.237 132H204.413V143.67ZM206.398 135.987C206.398 134.55 207.286 133.549 208.642 133.549C210.03 133.549 210.853 134.566 210.853 135.987C210.853 137.407 210.03 138.408 208.642 138.408C207.286 138.408 206.398 137.423 206.398 135.987ZM217.974 140.184C220.056 140.184 221.509 139.135 221.848 137.391H220.024C219.798 138.15 219.088 138.57 218.006 138.57C216.699 138.57 215.956 137.859 215.811 136.455L221.816 136.439V135.842C221.816 133.356 220.299 131.758 217.91 131.758C215.569 131.758 213.939 133.485 213.939 135.987C213.939 138.457 215.601 140.184 217.974 140.184ZM217.926 133.372C219.104 133.372 219.863 134.098 219.863 135.196H215.86C216.053 134.001 216.764 133.372 217.926 133.372ZM228.396 131.968C228.073 131.887 227.799 131.855 227.524 131.855C226.459 131.855 225.7 132.387 225.361 133.178L225.248 132.016H223.392V139.974H225.361V136.1C225.361 134.55 226.249 133.792 227.67 133.792H228.396V131.968ZM231.786 140.184C233.029 140.184 234.111 139.619 234.45 138.796L234.595 139.974H236.322V135.131C236.322 132.92 234.999 131.758 232.852 131.758C230.689 131.758 229.268 132.888 229.268 134.615H230.947C230.947 133.775 231.593 133.291 232.755 133.291C233.756 133.291 234.401 133.727 234.401 134.809V134.986L232.012 135.164C230.124 135.309 229.058 136.229 229.058 137.698C229.058 139.199 230.092 140.184 231.786 140.184ZM232.432 138.699C231.544 138.699 231.06 138.344 231.06 137.617C231.06 136.972 231.528 136.568 232.755 136.455L234.418 136.326V136.746C234.418 137.972 233.643 138.699 232.432 138.699ZM240.226 139.974V135.68C240.226 134.389 240.969 133.549 242.179 133.549C243.196 133.549 243.858 134.195 243.858 135.535V139.974H245.827V135.067C245.827 133.001 244.794 131.758 242.793 131.758C241.711 131.758 240.743 132.226 240.242 133.033L240.081 132H238.257V139.974H240.226ZM253.783 139.974V138.327H249.748L253.783 133.63V132H247.343V133.646H251.313L247.343 138.36V139.974H253.783ZM257.765 140.184C259.007 140.184 260.089 139.619 260.428 138.796L260.573 139.974H262.3V135.131C262.3 132.92 260.977 131.758 258.83 131.758C256.667 131.758 255.246 132.888 255.246 134.615H256.925C256.925 133.775 257.571 133.291 258.733 133.291C259.734 133.291 260.38 133.727 260.38 134.809V134.986L257.991 135.164C256.102 135.309 255.037 136.229 255.037 137.698C255.037 139.199 256.07 140.184 257.765 140.184ZM258.41 138.699C257.522 138.699 257.038 138.344 257.038 137.617C257.038 136.972 257.506 136.568 258.733 136.455L260.396 136.326V136.746C260.396 137.972 259.621 138.699 258.41 138.699Z" fill="white"/>
<path d="M52.8655 81.3825V65.9148H25.3203V49.4937H58.0567V33.6023H8.1576V112H25.3203V81.3825H52.8655ZM67.1711 82.5479C67.1711 101.3 79.7783 113.271 99.3777 113.271C119.083 113.271 131.796 101.194 131.796 82.5479V33.6023H114.634V81.3825C114.634 91.0233 109.124 96.6383 99.3777 96.6383C89.7369 96.6383 84.3338 91.2352 84.3338 81.3825V33.6023H67.1711V82.5479ZM145.453 112H178.083C195.034 112 204.357 104.266 204.357 90.3877C204.357 81.4884 200.225 75.4497 192.492 72.9071C199.59 69.8347 203.404 63.69 203.404 55.3206C203.404 41.8658 193.869 33.6023 178.083 33.6023H145.453V112ZM176.282 48.6462C182.533 48.6462 185.817 51.5066 185.817 57.0156C185.817 62.6306 182.427 65.703 176.282 65.703H162.616V48.6462H176.282ZM177.13 80.1112C183.381 80.1112 186.771 82.9716 186.771 88.2688C186.771 94.0957 183.486 96.9561 177.13 96.9561H162.616V80.1112H177.13ZM263.583 112V96.1086H230.953V79.8993H259.875V64.8554H230.953V49.4937H263.583V33.6023H213.79V112H263.583Z" fill="white"/>
</svg>
