<svg width="184" height="76" viewBox="0 0 184 76" fill="none" xmlns="http://www.w3.org/2000/svg">
<path d="M4.95884 70.0751V68.922H2.23163V66.9267H5.48021V65.7436H0.948242V73.073H2.23163V70.0751H4.95884Z" fill="#2843B2"/>
<path d="M9.51195 68.1199V70.7168C9.51195 71.6592 9.14097 72.1104 8.36894 72.1104C7.68713 72.1104 7.31615 71.7294 7.31615 70.7869V68.1199H6.09292V71.2181C6.09292 72.4313 6.7647 73.2033 7.90772 73.2033C8.56946 73.2033 9.21116 72.8825 9.51195 72.4112L9.60219 73.073H10.7352V68.1199H9.51195Z" fill="#2843B2"/>
<path d="M13.2218 73.073V70.4059C13.2218 69.6038 13.683 69.0824 14.435 69.0824C15.0667 69.0824 15.4778 69.4835 15.4778 70.3157V73.073H16.701V70.0249C16.701 68.7415 16.0593 67.9695 14.816 67.9695C14.1443 67.9695 13.5427 68.2603 13.2319 68.7616L13.1316 68.1199H11.9986V73.073H13.2218Z" fill="#2843B2"/>
<path d="M19.9382 73.2033C20.6902 73.2033 21.3319 72.8725 21.6327 72.3009L21.7129 73.073H22.8359V65.6133H21.6227V68.7516C21.3119 68.2603 20.7003 67.9695 20.0084 67.9695C18.5145 67.9695 17.6121 69.0724 17.6121 70.6165C17.6121 72.1505 18.5045 73.2033 19.9382 73.2033ZM20.209 72.0804C19.3567 72.0804 18.8353 71.4587 18.8353 70.5764C18.8353 69.6941 19.3567 69.0624 20.209 69.0624C21.0612 69.0624 21.6127 69.684 21.6127 70.5764C21.6127 71.4687 21.0612 72.0804 20.209 72.0804Z" fill="#2843B2"/>
<path d="M25.5846 73.2033C26.3566 73.2033 27.0284 72.8524 27.2389 72.341L27.3292 73.073H28.402V70.065C28.402 68.6914 27.5798 67.9695 26.2463 67.9695C24.9028 67.9695 24.0204 68.6714 24.0204 69.7442H25.0632C25.0632 69.2228 25.4642 68.922 26.1861 68.922C26.8078 68.922 27.2088 69.1927 27.2088 69.8645V69.9748L25.7249 70.0851C24.5518 70.1753 23.8901 70.7468 23.8901 71.6592C23.8901 72.5917 24.5318 73.2033 25.5846 73.2033ZM25.9856 72.2809C25.4342 72.2809 25.1334 72.0603 25.1334 71.6091C25.1334 71.2081 25.4241 70.9574 26.1861 70.8872L27.2189 70.807V71.0677C27.2189 71.8297 26.7376 72.2809 25.9856 72.2809Z" fill="#2843B2"/>
<path d="M29.3129 70.5864C29.3129 72.1606 30.2955 73.2033 31.7995 73.2033C33.0929 73.2033 34.0554 72.4112 34.2058 71.2582H32.9726C32.8422 71.7996 32.4111 72.1004 31.7995 72.1004C31.0174 72.1004 30.5362 71.5189 30.5362 70.5864C30.5362 69.654 31.0575 69.0624 31.8396 69.0624C32.4211 69.0624 32.8322 69.3532 32.9726 69.9146H34.1958C34.0655 68.7215 33.143 67.9695 31.7895 67.9695C30.3256 67.9695 29.3129 69.0524 29.3129 70.5864Z" fill="#2843B2"/>
<path d="M35.7279 67.1273C36.129 67.1273 36.4598 66.7964 36.4598 66.3853C36.4598 65.9742 36.129 65.6534 35.7279 65.6534C35.3068 65.6534 34.9759 65.9742 34.9759 66.3853C34.9759 66.7964 35.3068 67.1273 35.7279 67.1273ZM35.1163 73.073H36.3395V68.1199H35.1163V73.073Z" fill="#2843B2"/>
<path d="M41.4034 66.0444H40.2704L39.5184 67.5283H40.4208L41.4034 66.0444ZM37.3126 70.5864C37.3126 72.1305 38.4255 73.1933 39.9596 73.1933C41.4936 73.1933 42.6066 72.1305 42.6066 70.5864C42.6066 69.0423 41.4936 67.9795 39.9596 67.9795C38.4255 67.9795 37.3126 69.0423 37.3126 70.5864ZM38.5358 70.5864C38.5358 69.684 39.1173 69.0724 39.9596 69.0724C40.8018 69.0724 41.3833 69.684 41.3833 70.5864C41.3833 71.4888 40.8018 72.1004 39.9596 72.1004C39.1173 72.1004 38.5358 71.4888 38.5358 70.5864Z" fill="#2843B2"/>
<path d="M44.7994 73.073V70.4059C44.7994 69.6038 45.2606 69.0824 46.0126 69.0824C46.6442 69.0824 47.0553 69.4835 47.0553 70.3157V73.073H48.2786V70.0249C48.2786 68.7415 47.6369 67.9695 46.3936 67.9695C45.7218 67.9695 45.1202 68.2603 44.8094 68.7616L44.7091 68.1199H43.5761V73.073H44.7994Z" fill="#2843B2"/>
<path d="M55.5417 68.1199V70.7168C55.5417 71.6592 55.1708 72.1104 54.3987 72.1104C53.7169 72.1104 53.3459 71.7294 53.3459 70.7869V68.1199H52.1227V71.2181C52.1227 72.4313 52.7945 73.2033 53.9375 73.2033C54.5992 73.2033 55.2409 72.8825 55.5417 72.4112L55.632 73.073H56.765V68.1199H55.5417Z" fill="#2843B2"/>
<path d="M59.2516 73.073V70.4059C59.2516 69.6038 59.7128 69.0824 60.4648 69.0824C61.0965 69.0824 61.5076 69.4835 61.5076 70.3157V73.073H62.7308V70.0249C62.7308 68.7415 62.0891 67.9695 60.8458 67.9695C60.174 67.9695 59.5725 68.2603 59.2616 68.7616L59.1614 68.1199H58.0284V73.073H59.2516Z" fill="#2843B2"/>
<path d="M66.3443 70.5864C66.3443 72.1606 67.3269 73.2033 68.8309 73.2033C70.1243 73.2033 71.0869 72.4112 71.2373 71.2582H70.004C69.8736 71.7996 69.4425 72.1004 68.8309 72.1004C68.0488 72.1004 67.5676 71.5189 67.5676 70.5864C67.5676 69.654 68.0889 69.0624 68.871 69.0624C69.4525 69.0624 69.8636 69.3532 70.004 69.9146H71.2272C71.0969 68.7215 70.1744 67.9695 68.8209 67.9695C67.357 67.9695 66.3443 69.0524 66.3443 70.5864Z" fill="#2843B2"/>
<path d="M74.3635 73.2033C75.657 73.2033 76.5594 72.5516 76.7699 71.4687H75.6369C75.4965 71.94 75.0554 72.2007 74.3836 72.2007C73.5715 72.2007 73.1102 71.7595 73.02 70.8872L76.7499 70.8772V70.5062C76.7499 68.9621 75.8074 67.9695 74.3234 67.9695C72.8696 67.9695 71.8569 69.0423 71.8569 70.5964C71.8569 72.1305 72.8897 73.2033 74.3635 73.2033ZM74.3335 68.9722C75.0654 68.9722 75.5366 69.4233 75.5366 70.1051H73.0501C73.1704 69.3632 73.6116 68.9722 74.3335 68.9722Z" fill="#2843B2"/>
<path d="M78.9521 73.073V70.4059C78.9521 69.6038 79.4133 69.0824 80.1653 69.0824C80.797 69.0824 81.208 69.4835 81.208 70.3157V73.073H82.4313V70.0249C82.4313 68.7415 81.7896 67.9695 80.5463 67.9695C79.8745 67.9695 79.2729 68.2603 78.9621 68.7616L78.8618 68.1199H77.7288V73.073H78.9521Z" fill="#2843B2"/>
<path d="M85.3176 73.073V69.1426H86.2801V68.1199H85.3176V66.5758H84.0943V68.1199H83.1418V69.1426H84.0943V73.073H85.3176Z" fill="#2843B2"/>
<path d="M90.1488 68.0998C89.9482 68.0497 89.7778 68.0297 89.6073 68.0297C88.9456 68.0297 88.4743 68.3605 88.2638 68.8518L88.1936 68.1299H87.0406V73.073H88.2638V70.6666C88.2638 69.7041 88.8152 69.2328 89.6976 69.2328H90.1488V68.0998Z" fill="#2843B2"/>
<path d="M90.5195 70.5864C90.5195 72.1305 91.6324 73.1933 93.1665 73.1933C94.7005 73.1933 95.8135 72.1305 95.8135 70.5864C95.8135 69.0423 94.7005 67.9795 93.1665 67.9795C91.6324 67.9795 90.5195 69.0423 90.5195 70.5864ZM91.7427 70.5864C91.7427 69.684 92.3243 69.0724 93.1665 69.0724C94.0087 69.0724 94.5902 69.684 94.5902 70.5864C94.5902 71.4888 94.0087 72.1004 93.1665 72.1004C92.3243 72.1004 91.7427 71.4888 91.7427 70.5864Z" fill="#2843B2"/>
<path d="M101.521 73.2033C102.273 73.2033 102.915 72.8725 103.215 72.3009L103.296 73.073H104.419V65.6133H103.205V68.7516C102.895 68.2603 102.283 67.9695 101.591 67.9695C100.097 67.9695 99.1947 69.0724 99.1947 70.6165C99.1947 72.1505 100.087 73.2033 101.521 73.2033ZM101.792 72.0804C100.939 72.0804 100.418 71.4587 100.418 70.5764C100.418 69.6941 100.939 69.0624 101.792 69.0624C102.644 69.0624 103.195 69.684 103.195 70.5764C103.195 71.4687 102.644 72.0804 101.792 72.0804Z" fill="#2843B2"/>
<path d="M107.909 73.2033C109.203 73.2033 110.105 72.5516 110.316 71.4687H109.183C109.042 71.94 108.601 72.2007 107.929 72.2007C107.117 72.2007 106.656 71.7595 106.566 70.8872L110.295 70.8772V70.5062C110.295 68.9621 109.353 67.9695 107.869 67.9695C106.415 67.9695 105.403 69.0423 105.403 70.5964C105.403 72.1305 106.435 73.2033 107.909 73.2033ZM107.879 68.9722C108.611 68.9722 109.082 69.4233 109.082 70.1051H106.596C106.716 69.3632 107.157 68.9722 107.879 68.9722Z" fill="#2843B2"/>
<path d="M116.193 73.2033C117.486 73.2033 118.389 72.5516 118.599 71.4687H117.466C117.326 71.94 116.885 72.2007 116.213 72.2007C115.401 72.2007 114.939 71.7595 114.849 70.8872L118.579 70.8772V70.5062C118.579 68.9621 117.637 67.9695 116.153 67.9695C114.699 67.9695 113.686 69.0423 113.686 70.5964C113.686 72.1305 114.719 73.2033 116.193 73.2033ZM116.163 68.9722C116.895 68.9722 117.366 69.4233 117.366 70.1051H114.879C115 69.3632 115.441 68.9722 116.163 68.9722Z" fill="#2843B2"/>
<path d="M119.177 71.569C119.177 72.5416 119.959 73.2033 121.192 73.2033C122.416 73.2033 123.268 72.5817 123.268 71.579C123.268 70.817 122.847 70.436 122.015 70.2455L121.122 70.035C120.701 69.9347 120.481 69.7542 120.481 69.4735C120.481 69.1025 120.761 68.8819 121.243 68.8819C121.714 68.8819 121.995 69.1526 122.005 69.5737H123.168C123.158 68.6112 122.406 67.9695 121.293 67.9695C120.15 67.9695 119.327 68.551 119.327 69.5236C119.327 70.3157 119.759 70.7368 120.651 70.9373L121.543 71.1479C121.984 71.2482 122.115 71.4286 122.115 71.6793C122.115 72.0403 121.804 72.2709 121.232 72.2709C120.671 72.2709 120.35 72.0001 120.34 71.569H119.177Z" fill="#2843B2"/>
<path d="M124.199 75.369H125.422V72.4112C125.733 72.9126 126.375 73.2033 127.117 73.2033C128.591 73.2033 129.433 72.0804 129.433 70.5363C129.433 68.9822 128.511 67.9695 127.117 67.9695C126.365 67.9695 125.713 68.3004 125.412 68.8719L125.332 68.1199H124.199V75.369ZM125.432 70.5964C125.432 69.7041 125.984 69.0824 126.826 69.0824C127.688 69.0824 128.2 69.7141 128.2 70.5964C128.2 71.4788 127.688 72.1004 126.826 72.1004C125.984 72.1004 125.432 71.4888 125.432 70.5964Z" fill="#2843B2"/>
<path d="M132.623 73.2033C133.916 73.2033 134.819 72.5516 135.029 71.4687H133.896C133.756 71.94 133.315 72.2007 132.643 72.2007C131.831 72.2007 131.37 71.7595 131.279 70.8872L135.009 70.8772V70.5062C135.009 68.9621 134.067 67.9695 132.583 67.9695C131.129 67.9695 130.116 69.0423 130.116 70.5964C130.116 72.1305 131.149 73.2033 132.623 73.2033ZM132.593 68.9722C133.325 68.9722 133.796 69.4233 133.796 70.1051H131.309C131.43 69.3632 131.871 68.9722 132.593 68.9722Z" fill="#2843B2"/>
<path d="M139.096 68.0998C138.896 68.0497 138.725 68.0297 138.555 68.0297C137.893 68.0297 137.422 68.3605 137.211 68.8518L137.141 68.1299H135.988V73.073H137.211V70.6666C137.211 69.7041 137.763 69.2328 138.645 69.2328H139.096V68.0998Z" fill="#2843B2"/>
<path d="M141.202 73.2033C141.974 73.2033 142.646 72.8524 142.857 72.341L142.947 73.073H144.02V70.065C144.02 68.6914 143.198 67.9695 141.864 67.9695C140.521 67.9695 139.638 68.6714 139.638 69.7442H140.681C140.681 69.2228 141.082 68.922 141.804 68.922C142.426 68.922 142.827 69.1927 142.827 69.8645V69.9748L141.343 70.0851C140.17 70.1753 139.508 70.7468 139.508 71.6592C139.508 72.5917 140.15 73.2033 141.202 73.2033ZM141.603 72.2809C141.052 72.2809 140.751 72.0603 140.751 71.6091C140.751 71.2081 141.042 70.9574 141.804 70.8872L142.837 70.807V71.0677C142.837 71.8297 142.355 72.2809 141.603 72.2809Z" fill="#2843B2"/>
<path d="M146.445 73.073V70.4059C146.445 69.6038 146.906 69.0824 147.658 69.0824C148.29 69.0824 148.701 69.4835 148.701 70.3157V73.073H149.924V70.0249C149.924 68.7415 149.282 67.9695 148.039 67.9695C147.367 67.9695 146.766 68.2603 146.455 68.7616L146.355 68.1199H145.222V73.073H146.445Z" fill="#2843B2"/>
<path d="M154.866 73.073V72.0503H152.359L154.866 69.1326V68.1199H150.865V69.1426H153.332L150.865 72.0703V73.073H154.866Z" fill="#2843B2"/>
<path d="M157.339 73.2033C158.111 73.2033 158.783 72.8524 158.993 72.341L159.083 73.073H160.156V70.065C160.156 68.6914 159.334 67.9695 158.001 67.9695C156.657 67.9695 155.775 68.6714 155.775 69.7442H156.817C156.817 69.2228 157.218 68.922 157.94 68.922C158.562 68.922 158.963 69.1927 158.963 69.8645V69.9748L157.479 70.0851C156.306 70.1753 155.644 70.7468 155.644 71.6592C155.644 72.5917 156.286 73.2033 157.339 73.2033ZM157.74 72.2809C157.188 72.2809 156.888 72.0603 156.888 71.6091C156.888 71.2081 157.178 70.9574 157.94 70.8872L158.973 70.807V71.0677C158.973 71.8297 158.492 72.2809 157.74 72.2809Z" fill="#2843B2"/>
<path d="M33.6493 33.8769V22.9101H14.1193V11.2673H37.3299V0H1.95068V55.5852H14.1193V33.8769H33.6493Z" fill="#2843B2"/>
<path d="M43.7922 34.7032C43.7922 47.9986 52.7309 56.4866 66.6272 56.4866C80.5986 56.4866 89.6124 47.9235 89.6124 34.7032V0H77.4437V33.8769C77.4437 40.7124 73.5378 44.6935 66.6272 44.6935C59.7917 44.6935 55.9608 40.8626 55.9608 33.8769V0H43.7922V34.7032Z" fill="#2843B2"/>
<path d="M99.2952 55.5852H122.431C134.449 55.5852 141.059 50.1018 141.059 40.2617C141.059 33.952 138.13 29.6705 132.646 27.8677C137.679 25.6894 140.383 21.3327 140.383 15.3986C140.383 5.85898 133.623 0 122.431 0H99.2952V55.5852ZM121.154 10.6663C125.586 10.6663 127.914 12.6945 127.914 16.6004C127.914 20.5815 125.51 22.7599 121.154 22.7599H111.464V10.6663H121.154ZM121.755 32.9755C126.186 32.9755 128.59 35.0037 128.59 38.7594C128.59 42.8907 126.262 44.9189 121.755 44.9189H111.464V32.9755H121.755Z" fill="#2843B2"/>
<path d="M183.052 55.5852V44.3179H159.916V32.8253H180.422V22.159H159.916V11.2673H183.052V0H147.747V55.5852H183.052Z" fill="#2843B2"/>
</svg>
